<?xml version="1.0" encoding="UTF-8"?>
<!DOCTYPE svg PUBLIC "-//W3C//DTD SVG 1.1//EN" "http://www.w3.org/Graphics/SVG/1.1/DTD/svg11.dtd">
<!-- Creator: CorelDRAW 2020 (64 Bit) -->
<svg xmlns="http://www.w3.org/2000/svg" xml:space="preserve" width="8.0682mm" height="11.4902mm" version="1.1" style="shape-rendering:geometricPrecision; text-rendering:geometricPrecision; image-rendering:optimizeQuality; fill-rule:evenodd; clip-rule:evenodd"
viewBox="0 0 145.32 206.96"
 xmlns:xlink="http://www.w3.org/1999/xlink"
 xmlns:xodm="http://www.corel.com/coreldraw/odm/2003">
 <defs>
  <style type="text/css">
   <![CDATA[
    .fil0 {fill:#FEFEFE}
   ]]>
  </style>
 </defs>
 <g id="Camada_x0020_1">
  <metadata id="CorelCorpID_0Corel-Layer"/>
  <g id="_2482738680240">
   <path class="fil0" d="M72.98 92.06c-2.27,0 -5.15,-0.28 -7.26,-0.91 -0.24,-0.07 -0.47,-0.13 -0.72,-0.2 -1.13,-0.28 -2.85,-0.9 -3.93,-1.45 -0.98,-0.49 -1.96,-0.95 -2.9,-1.52l-0.57 -0.35c-0.38,-0.24 -0.72,-0.46 -1.08,-0.71 -0.87,-0.59 -1.71,-1.26 -2.5,-1.96 -0.78,-0.7 -2.08,-1.88 -2.68,-2.66 -0.36,-0.47 -0.8,-0.93 -1.22,-1.49 -0.71,-0.95 -1.37,-1.92 -1.98,-2.94 -0.74,-1.24 -1.38,-2.56 -1.93,-3.91 -0.17,-0.43 -0.33,-0.84 -0.48,-1.31 -1.01,-3.04 -1.56,-5.85 -1.56,-9.32 1.21,0 11.17,-0.07 11.46,0.04 0,2.04 0.34,3.71 0.93,5.49 0.27,0.81 0.56,1.54 0.94,2.27 0.8,1.53 1.54,2.53 2.68,3.82 0.45,0.52 0.95,1 1.48,1.44l0.75 0.62c0.11,0.09 0.2,0.15 0.31,0.23 0.54,0.37 1.05,0.74 1.64,1.06 0.48,0.26 0.93,0.51 1.43,0.73 4.66,2.07 9.55,2.01 14.22,0.01 1.31,-0.56 2.56,-1.36 3.67,-2.25 0.12,-0.09 0.18,-0.16 0.3,-0.24l1.64 -1.57c0.37,-0.37 0.67,-0.76 1,-1.17l0.89 -1.28c0.13,-0.22 0.28,-0.45 0.41,-0.67 0.84,-1.46 1.44,-3.03 1.83,-4.67 0.21,-0.9 0.38,-1.89 0.43,-2.82 0.01,-0.18 -0.01,-0.37 -0,-0.54 0.01,-0.19 0.04,-0.26 0.04,-0.5 1.21,0 11.17,-0.07 11.46,0.04 0,0.31 -0.01,0.55 -0.04,0.8 -0.03,0.29 0.01,0.59 -0.03,0.89l-0.14 1.65c-0.15,1.76 -0.74,4.2 -1.32,5.85 -0.31,0.9 -0.65,1.74 -1.02,2.57 -0.36,0.81 -0.77,1.6 -1.21,2.37 -1.28,2.24 -2.85,4.3 -4.68,6.12l-0.67 0.67c-0.1,0.09 -0.15,0.11 -0.25,0.21 -0.08,0.08 -0.13,0.14 -0.21,0.21l-0.74 0.64c-0.16,0.13 -0.31,0.25 -0.48,0.39 -0.18,0.15 -0.34,0.26 -0.51,0.41 -0.33,0.26 -0.68,0.51 -1.04,0.75 -0.18,0.12 -0.33,0.23 -0.52,0.36l-1.68 1.03c-0.95,0.56 -1.97,1.03 -2.98,1.48 -3.46,1.52 -7.27,2.29 -11.21,2.29zm-28.8 -51.72c0,-0.95 0.17,-1.59 0.51,-2.41 0.65,-1.59 2.19,-2.78 3.87,-3.22 0.3,-0.08 0.89,-0.16 1.25,-0.17 0.41,-0.01 0.97,0.06 1.29,0.13 0.4,0.08 0.73,0.19 1.07,0.34 2.01,0.86 3.47,2.89 3.47,5.07 0,1.33 -0.29,2.47 -1.02,3.48 -0.45,0.62 -0.74,0.91 -1.37,1.38 -0.77,0.58 -2,1.05 -3.07,1.05 -1.1,0 -1.81,-0.07 -2.78,-0.55l-0.64 -0.36c-0.36,-0.23 -0.67,-0.52 -0.97,-0.82 -0.99,-0.99 -1.62,-2.45 -1.62,-3.93zm34.47 0.04l0 23.42c-0.01,0.2 -0.05,0.47 -0.09,0.66 -0.91,4.21 -5.72,5.86 -8.93,3.54 -1.46,-1.06 -2.44,-2.67 -2.44,-4.9l0 -40.05 16.13 0c0.54,0 1.09,-0.01 1.63,-0 0.51,0.01 1.01,0.08 1.5,0.12 1.83,0.17 3.72,0.76 5.1,1.41 0.92,0.43 1.26,0.62 2.09,1.12 1.93,1.19 3.69,2.91 4.97,4.74l0.62 0.96c0.11,0.18 0.2,0.32 0.3,0.5 0.06,0.1 0.09,0.18 0.14,0.28 0.19,0.36 0.2,0.32 0.41,0.8 0.28,0.66 0.46,0.97 0.72,1.74 1.3,3.87 1.23,8.33 -0.35,12.06 -0.35,0.83 -0.69,1.54 -1.15,2.31 -1.19,1.98 -2.65,3.61 -4.52,5.02 -0.78,0.59 -1.78,1.2 -2.66,1.64 -0.34,0.17 -1.6,0.74 -1.86,0.77l0 -15.34c0,-0.39 0.08,-0.92 -0.13,-0.92l-11.33 0c-0.1,0 -0.13,0.03 -0.13,0.12zm-63.26 16.3l0 1.75c0,0.9 0.07,1.66 0.08,2.54 0.01,0.46 0.17,1.95 0.21,2.46 0.04,0.54 0.11,1.08 0.18,1.61 0.64,4.83 1.88,9.53 3.68,14.03l0.8 1.87c0.06,0.12 0.09,0.21 0.14,0.32 0.05,0.11 0.1,0.18 0.15,0.31 0.34,0.83 0.76,1.58 1.16,2.39 0.57,1.16 1.24,2.28 1.91,3.39 1.14,1.91 2.44,3.74 3.79,5.5l0.98 1.23c0.15,0.18 0.27,0.32 0.42,0.5l1.21 1.41c0.09,0.08 0.15,0.14 0.23,0.23l0.63 0.7c0.15,0.16 0.3,0.3 0.46,0.46l2.69 2.65c0.52,0.5 1.12,0.93 1.65,1.44 0.69,0.65 1.48,1.19 2.21,1.79l3.09 2.2c0.19,0.13 0.35,0.23 0.53,0.35 1.34,0.89 2.75,1.69 4.15,2.47l0.9 0.47c0.41,0.2 0.8,0.39 1.19,0.6l0.9 0.43c0.12,0.06 0.2,0.08 0.32,0.14 1.22,0.59 2.47,1.09 3.74,1.55 2.24,0.81 4.39,1.53 6.8,2.07 5,1.13 8.76,1.56 14.07,1.56 0.62,0 1.13,-0.04 1.71,-0.04 0.71,0.01 2.71,-0.16 3.3,-0.24 0.28,-0.04 0.56,-0.05 0.79,-0.08 2.29,-0.29 4.61,-0.63 6.85,-1.2 0.97,-0.24 1.9,-0.45 2.8,-0.74 0.21,-0.07 0.45,-0.14 0.67,-0.2 0.89,-0.24 1.82,-0.56 2.69,-0.89 1.08,-0.42 2.13,-0.81 3.2,-1.26 3.22,-1.38 6.3,-3.06 9.21,-5 0.18,-0.12 0.35,-0.22 0.52,-0.35l1.56 -1.11c1.02,-0.77 2.03,-1.55 3.01,-2.37 0.09,-0.08 0.12,-0.08 0.23,-0.18l0.25 -0.22c0.1,-0.09 0.12,-0.11 0.23,-0.19 0.55,-0.44 1.61,-1.43 2.11,-1.93l1.77 -1.77c0.08,-0.08 0.13,-0.13 0.21,-0.21l0.66 -0.71c0.15,-0.18 0.28,-0.3 0.41,-0.46 0.1,-0.12 0.1,-0.13 0.2,-0.22 0.61,-0.61 2.1,-2.49 2.62,-3.18 0.52,-0.7 1.02,-1.36 1.52,-2.07 0.99,-1.4 1.93,-2.86 2.76,-4.36 0.11,-0.2 0.2,-0.38 0.31,-0.56 0.06,-0.1 0.09,-0.15 0.15,-0.27l0.47 -0.86c0.64,-1.29 1.16,-2.23 1.75,-3.62 0.44,-1.04 0.9,-2.07 1.28,-3.14 0.08,-0.22 0.15,-0.44 0.23,-0.64 0.09,-0.22 0.15,-0.45 0.24,-0.68 0.54,-1.36 1.28,-4.12 1.6,-5.52 0.45,-1.91 0.82,-3.91 1.08,-6.04 0.75,-6.17 0.55,-11.4 -0.46,-17.48 -0.08,-0.49 -0.18,-1.05 -0.29,-1.5 -0.12,-0.5 -0.2,-0.97 -0.32,-1.47 -0.53,-2.09 -1.06,-4.14 -1.81,-6.15 -0.41,-1.08 -0.81,-2.15 -1.26,-3.2 -0.19,-0.43 -0.35,-0.82 -0.54,-1.25 -0.18,-0.39 -0.41,-0.81 -0.56,-1.19 -0.25,-0.62 -0.6,-1.18 -0.9,-1.77 -0.58,-1.17 -1.26,-2.25 -1.92,-3.37l-1.06 -1.65c-0.25,-0.37 -0.48,-0.7 -0.73,-1.07l-1.1 -1.52c-0.12,-0.15 -0.25,-0.33 -0.39,-0.52 -0.51,-0.68 -1.04,-1.34 -1.59,-1.99l-2.08 -2.34c-0.1,-0.1 -0.11,-0.15 -0.21,-0.25 -0.93,-1 -1.95,-1.92 -2.92,-2.88 -0.1,-0.1 -0.13,-0.1 -0.23,-0.19l-1.17 -1.04c-0.16,-0.15 -0.32,-0.29 -0.49,-0.43l-2.45 -1.97c-0.68,-0.53 -1.4,-0.99 -2.09,-1.49 -0.19,-0.13 -0.34,-0.24 -0.52,-0.36l-1.34 -0.87c-3.28,-2.05 -6.74,-3.81 -10.37,-5.17l-2.62 -0.92c-1.27,-0.43 -2.89,-0.9 -4.2,-1.17 -0.97,-0.2 -1.94,-0.46 -2.92,-0.62 -1.02,-0.17 -2.05,-0.35 -3.1,-0.49 -0.73,-0.1 -1.64,-0.23 -2.36,-0.26 -0.26,-0.01 -0.6,-0.02 -0.86,-0.06 -0.16,-0.02 -0.22,-0.02 -0.39,-0.02 -0.22,-0 -0.23,-0.03 -0.41,-0.04 -1.34,-0.07 -2.74,-0.08 -4.1,-0.08l-0.06 0c-3.92,0 -7.44,0.49 -11.15,1.23l-2.86 0.68c-0.49,0.14 -0.93,0.25 -1.4,0.39 -1.35,0.39 -2.67,0.8 -3.98,1.32 -2.22,0.87 -4.03,1.66 -6.16,2.72l-0.85 0.44c-0.88,0.44 -1.7,0.95 -2.55,1.46l-5.28 3.6c-0.33,0.27 -0.65,0.5 -0.98,0.77 -0.34,0.27 -0.66,0.52 -0.98,0.81 -0.09,0.08 -0.14,0.11 -0.23,0.19l-0.71 0.62c-0.42,0.34 -1.08,1.01 -1.4,1.26 -0.24,0.19 -0.46,0.44 -0.67,0.66 -0.11,0.11 -0.14,0.12 -0.25,0.21 -0.32,0.27 -0.6,0.6 -0.9,0.89 -0.1,0.1 -0.11,0.12 -0.19,0.23l-1.71 1.83c-0.08,0.1 -0.14,0.14 -0.22,0.23 -1.25,1.42 -2.39,2.93 -3.53,4.43l-1.09 1.58c-0.89,1.33 -1.54,2.47 -2.37,3.84 -0.57,0.93 -1.05,1.94 -1.54,2.92l-0.58 1.21c-0.69,1.68 -1.46,3.32 -2.03,5.05 -0.6,1.82 -1.14,3.61 -1.61,5.48 -0.46,1.81 -1.15,5.41 -1.29,7.55 -0.02,0.27 -0.06,0.55 -0.08,0.79l-0.08 1.25c-0,0.22 -0.03,0.23 -0.04,0.41l-0.08 2.63z"/>
   <path class="fil0" d="M96.1 156.95l-4.75 0 0 -14.5 4.79 0c1.01,0 2.13,0.27 2.85,0.57 2.54,1.07 3.99,3.45 3.99,6.26 0,1.88 -0.14,3.26 -1.16,4.8 -0.25,0.37 -0.46,0.63 -0.77,0.94 -0.53,0.54 -1.37,1.07 -2.07,1.35 -0.76,0.3 -1.81,0.58 -2.88,0.58zm-15.17 8c0,0.1 0.03,0.13 0.12,0.13l15.5 0c3.25,0 6.15,-0.69 8.97,-2.03 0.95,-0.45 2.21,-1.31 3.02,-1.98l1.5 -1.5c0.7,-0.75 1.55,-2.12 1.98,-3.02 1.61,-3.36 1.87,-7.87 0.84,-11.46 -0.07,-0.26 -0.15,-0.52 -0.24,-0.76 -1.04,-2.77 -2.28,-4.51 -4.55,-6.37 -0.06,-0.05 -0.09,-0.07 -0.14,-0.11l-0.1 -0.07c-1.06,-0.77 -1.99,-1.35 -3.23,-1.86 -2.44,-1.02 -5.23,-1.6 -7.9,-1.6l-15.79 0 0 30.63z"/>
   <path class="fil0" d="M37.09 157.37l0 6.67 -8.92 0 0 -28.59 13.29 0c1.94,0 3.82,0.17 5.35,0.61 1.1,0.31 2.2,0.71 3.17,1.29 0.45,0.26 1.34,0.86 1.71,1.24 0.14,0.14 0.25,0.21 0.4,0.35l0.7 0.8c2.17,2.78 2.56,6.36 1.61,9.69 -0.18,0.62 -0.64,1.62 -1,2.17 -0.07,0.11 -0.1,0.17 -0.17,0.28 -0.33,0.49 -0.51,0.64 -0.79,1 -0.27,0.35 -0.58,0.59 -0.9,0.89 -0.08,0.08 -0.15,0.12 -0.23,0.19 -0.55,0.46 -1.34,0.93 -1.97,1.24 -1.68,0.84 -3.06,1.13 -4.89,1.39 -1.5,0.21 -4.5,0.15 -6.15,0.15 -0.44,0 -1.21,-0.14 -1.21,0.63zm16.05 -18.92c-0.04,-0.02 -1.05,-1 -1.58,-1.38l-1.89 -1.11c-1.44,-0.72 -3.04,-1.13 -4.64,-1.37 -1.17,-0.17 -2.45,-0.23 -3.77,-0.23l-13.46 0c-0.35,0 -0.67,0.17 -0.67,0.5l0 29.76c0,0.34 0.32,0.5 0.67,0.5l9.75 0c0.31,0 0.63,-0.2 0.63,-0.5l0 -6.79c3.11,0 5.87,0.15 8.85,-0.62 0.57,-0.15 0.96,-0.31 1.45,-0.46 1.31,-0.42 3.18,-1.54 4.17,-2.54 0.16,-0.16 0.31,-0.35 0.49,-0.47l0 11.34 25.59 0 0 -7.84 -15.38 0 0 -4 12.88 0c0.1,0 0.13,-0.03 0.13,-0.13l0 -7.38 -13 0 0 -3.58 14.8 0 0 -7.84 -25.01 0 0 4.13z"/>
   <path class="fil0" d="M115.36 151.41c0,3.14 0.74,6.25 2.33,8.59 0.12,0.19 0.25,0.36 0.38,0.53 0.31,0.42 0.49,0.63 0.84,0.99 0.11,0.11 0.12,0.14 0.21,0.25l1.2 1.05c0.48,0.39 1.68,1.17 2.26,1.4l1.3 0.54c3.26,1.25 7.96,1.3 11.49,0.45 1.26,-0.31 2.68,-0.88 3.79,-1.55l1.07 -0.72c0.09,-0.07 0.15,-0.12 0.24,-0.19 0.12,-0.09 0.14,-0.12 0.25,-0.21 0.12,-0.1 0.14,-0.12 0.24,-0.22 0.77,-0.72 1.27,-1.17 1.9,-2.1l1.27 -2.31c0.65,-1.46 1.19,-3.88 1.19,-5.97l0 -17.63 -10.21 0 0 16.96c0,0.86 -0.11,1.69 -0.26,2.41 -0.16,0.74 -0.42,1.38 -0.78,1.93 -1.53,2.33 -5.61,2.34 -7.21,0.08 -0.68,-0.96 -1.08,-2.56 -1.08,-4.21l0 -17.17 -10.42 0 0 17.09z"/>
   <path class="fil0" d="M81.31 206.96l10.04 0c0.14,0 0.11,-0.07 0.16,-0.18l1.94 -4.6c0.14,-0.35 0.27,-0.63 0.41,-0.97l0.41 -0.97c0.13,-0.32 0.28,-0.65 0.41,-0.96l2.86 -6.77c0.14,-0.35 0.28,-0.65 0.42,-0.99l1.23 -2.9c0.06,-0.16 0.12,-0.3 0.2,-0.47l0.62 -1.47c0.49,-1.24 1.15,-2.64 1.65,-3.89 0.13,-0.32 0.27,-0.64 0.41,-0.96l1.63 -3.87c0.13,-0.31 0.27,-0.65 0.41,-0.97l0.31 -0.74c0.04,-0.1 0.1,-0.18 -0.06,-0.18l-10 0c-0.18,0 -0.24,0.32 -0.31,0.48l-7.2 17.22c-0.06,0.15 -0.03,0.17 -0.15,0.26 -0.02,-0.23 -2.52,-6.22 -2.96,-7.33 -0.07,-0.19 -0.15,-0.36 -0.23,-0.56 -0.08,-0.2 -0.14,-0.37 -0.23,-0.57l-0.23 -0.56c-0.3,-0.77 -0.61,-1.48 -0.92,-2.25l-2.65 -6.48c-0.05,-0.11 -0.06,-0.22 -0.2,-0.22l-10.96 0c-0.24,0 0.07,0.5 0.23,0.89 0.64,1.54 1.44,3.33 2.04,4.83 0.14,0.35 0.27,0.62 0.41,0.96 0.59,1.48 1.41,3.34 2.04,4.84 0.14,0.34 0.27,0.63 0.41,0.96 0.63,1.48 1.47,3.39 2.06,4.87 0.14,0.34 0.27,0.62 0.41,0.96 0.14,0.35 0.27,0.63 0.41,0.97 0.15,0.34 0.26,0.64 0.41,0.97 0.14,0.31 0.28,0.66 0.41,0.97l2.87 6.8c0.15,0.34 0.27,0.62 0.41,0.97l0.72 1.7c0.04,0.11 0.04,0.2 0.17,0.2z"/>
   <path class="fil0" d="M41.38 176.21l0 7.88c0,0.18 0.22,0.13 0.42,0.13 1.45,-0.02 8.37,-0.04 8.59,0.04l0 22.09c0,0.2 -0.08,0.63 0.12,0.63l10.21 0c0.2,0 0.13,-0.39 0.12,-0.58l0 -22.13c0.26,-0.1 6.95,-0.05 8.29,-0.04 0.67,0 0.6,0.11 0.32,-0.53l-3.04 -7.21c-0.06,-0.14 -0.11,-0.39 -0.28,-0.39l-24.63 0c-0.1,0 -0.12,0.03 -0.12,0.13z"/>
   <path class="fil0" d="M4.21 135.45l18.42 0 0 17.8c0,2.09 -0.53,4.68 -1.58,6.34 -0.28,0.45 -0.69,1.03 -1.06,1.4 -0.13,0.13 -0.23,0.23 -0.35,0.35 -0.89,0.9 -2.35,1.61 -3.54,2.01 -1.42,0.47 -2.15,0.46 -3.49,0.64l-1.36 0.05c-3.08,0 -6.19,-0.72 -8.63,-2.54 -0.38,-0.28 -1.15,-0.91 -1.38,-1.25l4.54 -5.34c0.16,0.11 0.56,0.64 0.87,0.88 1.03,0.82 1.97,1.66 3.71,1.66 2.67,0 3.71,-1.82 3.71,-4.34l0 -10.75c0,-0.37 -0.25,-0.63 -0.63,-0.63l-9.25 0 0 -6.29zm-4.21 24.83l0 -0.05c0.02,-0.27 0.28,-0.5 0.64,-0.92 0.05,-0.06 0.09,-0.09 0.14,-0.15l3.15 -3.73c0.11,-0.12 0.18,-0.21 0.29,-0.34l0.72 -0.86c0.21,-0.27 0.51,-0.68 0.82,-0.72 0.33,-0.03 0.53,0.33 0.7,0.52l0.46 0.5c0.07,0.08 0.06,0.09 0.13,0.17 0.1,0.12 0.21,0.17 0.33,0.29 0.74,0.75 1.84,1.39 2.99,1.39 1.99,0 2.63,-1.28 2.63,-3.13l0 -10.42 -9.29 0c-0.36,0 -0.58,-0.26 -0.58,-0.63l0 -7.13c0,-0.48 0.23,-0.71 0.71,-0.71l19.17 0c0.4,0 0.71,0.19 0.71,0.58l0 18.21c0,1.52 -0.26,3.28 -0.64,4.44 -0.65,1.99 -1.56,3.71 -3.28,5.02 -0.12,0.09 -0.23,0.17 -0.36,0.27 -0.26,0.18 -0.49,0.33 -0.76,0.49 -3.46,2.07 -9.12,2.12 -12.67,0.99 -1.45,-0.46 -2.64,-1.01 -3.86,-1.89 -0.75,-0.54 -1.01,-0.83 -1.65,-1.47 -0.13,-0.12 -0.19,-0.18 -0.3,-0.32 -0.12,-0.16 -0.18,-0.28 -0.19,-0.41z"/>
   <path class="fil0" d="M41.38 149.03l-3.21 0 0 -5.88 2.96 0c1.06,0 1.95,0.16 2.58,0.58 0.89,0.59 1.08,1.43 1.08,2.54 0,2.01 -1.57,2.75 -3.42,2.75zm-4.29 -6.33l0 6.79c0,0.35 0.23,0.63 0.58,0.63l3.71 0c1.84,0 3.36,-0.62 4.1,-2.1 0.33,-0.66 0.4,-1.28 0.4,-2.06 0,-1.35 -0.61,-2.38 -1.37,-2.96 -0.86,-0.65 -1.96,-0.92 -3.46,-0.92l-3.33 0c-0.37,0 -0.63,0.25 -0.63,0.63z"/>
  </g>
 </g>
</svg>
